<?xml version="1.0" encoding="utf-8"?>
<svg version="1.1"  xmlns:dc="http://purl.org/dc/elements/1.1/" xmlns:svg="http://www.w3.org/2000/svg"
	 xmlns="http://www.w3.org/2000/svg"   viewBox="0 0 133.2 82" width="133.2" height="82"
	  >
	
<g>
	<path class="icon__path--color"  d="M41.4,64.4c6,4.7,12.2,9.3,18,13.1c3.2,2.1,5.7,4.3,9.6,3.6c2.4-0.4,4.1-1.9,5.5-2.8c0.5,0.5,1.2,0.8,2,1.1
		c3.6,1.5,7.3,1.5,9.9-1.4c0.9-1,1-1.6,1.7-3.1c1.9-4,5.3-0.1,10.1-2.5c4.2-2.1,1.9-4.6,4.6-5c2.7-0.4,4.6-1.5,5.7-3.1l-15.1,0
		c1.3,1.1,2.3,2,2.7,2.3c-0.4,0.5-2.9,2.7-4.7,2.8c-2,0.1-5.9-2.2-9.9-5.1l-7.1,0c2.5,2.4,5.3,4.8,7.9,6.8c0.3,0.2,0.1,0.6,0,1
		c-0.4,2.1-3.2,2.4-5.2,1.6c-5-2-9.2-5.9-12.4-9.4h-4.9c3.1,4.2,8.3,9.2,8.6,10c0.5,1.4-2.4,0.6-3.8,0c-5.9-2.7-11.7-6-17.6-10
		L41.4,64.4z"/>
	<path class="icon__path--color"  d="M81.5,64.4c-4.6-3.4-9.4-7.8-11.7-10.8c-0.8-1.1-2.1-1.4-2.7-0.2c-0.9,1.9,2.7,6.5,7.3,10.9H81.5z M64.7,64.4
		c-1.7-1.8-3.1-3.5-4.2-4.7c-0.9-1-2.8-1.3-2.9,0c-0.1,1,0.9,2.8,2.3,4.7H64.7z M75.3,47.1c1.4,3.1,12.7,12.7,18.1,17.3l15.1,0
		c1.1-1.5,1.6-3.4,1.6-5.5c0-1.1-3-5.4-2.7-6c0.2-0.6,3.1-2.6,4.3-4.8c0.2-0.4,0.3-0.7,0.5-1h-5.7c-0.8,0.9-1.6,1.6-1.6,1.6
		c-0.3-0.5-0.7-1-1.2-1.6h-5.7c4.2,5.7,7.1,10.6,7.1,12.1c0,1.7-3,4.3-4.6,4.1C94.7,62.6,84.2,53,79.3,47.1L75.3,47.1z M20.5,47.1
		c5.8,5,13.2,11.3,20.9,17.3l5.8,0c-7-4.8-14.1-10.5-21.5-17.3H20.5z"/>
	<path class="icon__path--color"  d="M112.2,47.1c0.4-1.1,0.4-2.2,1.2-3.3c2.7-3.6,7.4-1.5,11.4-2.1c0.9-0.1,2.4-3.4,0.6-3.1
		c-7.3,1.3-10.9-2.3-13.8,1c-1.4,1.6-2.6,3.3-3.5,5.2c-0.4,0.7-1,1.5-1.6,2.2L112.2,47.1z M79.4,47.1c-0.8-0.9-1.4-1.8-1.8-2.5
		c-1-1.5-2.7,0.3-2.4,2.1c0,0.1,0.1,0.2,0.1,0.4L79.4,47.1z M25.6,47.1c-3.3-3-6.7-6.3-10.2-9.8C13.1,35,9.2,37,9.2,37
		c0.7,0.6,5.1,4.6,11.3,10.1L25.6,47.1z M127.9,29.8c0.3,3.1,0.5,6.6,0.5,10.6c0,6.2,3.9,0.3,3.9,0.3s0.4-4.7,0.4-10.9H127.9z
		 M83.3,29.8c5.1,5,10.5,11.6,14.6,17.3h5.7c-2.9-4-8.1-11-13.7-17.3H83.3z M44.1,29.8c0.9,2,2.4,3.6,4.8,4.3
		c5.5,1.7,9.4-1,12.7-4.3h-8c-0.2,0.1-0.4,0.2-0.7,0.3c-1.1,0.5-2.1,0.4-2.9-0.3H44.1z M0.6,29.8C0.3,34,0.3,37.3,1.1,38
		c2.1,1.9,4.8,2.1,4.5-0.7c-0.1-1.1,0.1-3.9,0.6-7.5H0.6z"/>
	<path class="icon__path--color"  d="M132.7,29.8c0.1-9.2-0.7-21.4-4.8-25.2c-2-1.9-8,0-6.7,2.6c1.3,2.7,5.3,9.1,6.7,22.7L132.7,29.8z M61.7,29.8
		c3.4-3.4,6.1-7.4,9.4-7.8c2.7-0.4,7.3,3,12.2,7.8h6.7C84.4,23.4,78.4,17.7,74,16.5c-4-1.1-9.1-0.8-11.4,3.1
		c-1.9,3.2-4.9,8.1-9.1,10.2L61.7,29.8z M50.1,29.8c-1-0.9-1.6-2.7-1.7-5.4c-0.2-6.4,2.5-10.1,7.1-14.3c5.1-4.7,10-5.4,16.9-5.5
		c11.3-0.3,23.5,10,25.9,11.1c11.2-5.2,13.5-6.4,20.7-6.3c2.1,0,0.8-3.3-1.3-3.4c-6.5-0.3-16.3,4.7-18.1,4.7
		c-2.4,0-11.9-9.1-21.9-10C62.3-0.7,55.4,5.4,54.2,5C38.4-0.6,18.3,6.2,13.9,5.7C13,6.8,11.5,9.4,13.9,9c17.1-2.8,34.6,1.2,34.6,1.2
		c-4,5.4-6.7,14.2-4.4,19.6H50.1z M6.2,29.8c1.1-8.4,3.3-20.9,4.5-25.1c1.7-6-6.4-2-6.4-2S1.3,19.3,0.6,29.8L6.2,29.8z"/>
</g>
</svg>
